<mxfile host="app.diagrams.net" modified="2021-10-04T06:58:06.229Z" agent="5.0 (Windows NT 10.0; Win64; x64) AppleWebKit/537.36 (KHTML, like Gecko) Chrome/93.0.4577.82 Safari/537.36" etag="lRHBueD1oXCAKmLif6z2" version="15.4.1" type="github" pages="6">
  <diagram name="Connection" id="DMz5YVnqWzDvg8ptLJZD">
    <mxGraphModel dx="806" dy="490" grid="1" gridSize="10" guides="1" tooltips="1" connect="1" arrows="1" fold="1" page="1" pageScale="1" pageWidth="827" pageHeight="1169" background="#DAD2D8" math="0" shadow="0">
      <root>
        <mxCell id="T7-tP2VTI22xgJnf27IW-0" />
        <mxCell id="T7-tP2VTI22xgJnf27IW-1" parent="T7-tP2VTI22xgJnf27IW-0" />
        <mxCell id="T7-tP2VTI22xgJnf27IW-2" value="" style="whiteSpace=wrap;html=1;absoluteArcSize=1;arcSize=132;strokeWidth=2;fillColor=#FAE5C7;strokeColor=#0F8B8D;fontColor=#143642;glass=0;shadow=0;rounded=1;" parent="T7-tP2VTI22xgJnf27IW-1" vertex="1">
          <mxGeometry x="273.75" y="110" width="420" height="930" as="geometry" />
        </mxCell>
        <mxCell id="T7-tP2VTI22xgJnf27IW-9" value="Elève" style="shape=umlActor;verticalLabelPosition=bottom;verticalAlign=top;html=1;fillColor=#FAE5C7;strokeColor=#0F8B8D;fontColor=#143642;rounded=1;" parent="T7-tP2VTI22xgJnf27IW-1" vertex="1">
          <mxGeometry x="160" y="725" width="85" height="120" as="geometry" />
        </mxCell>
        <mxCell id="T7-tP2VTI22xgJnf27IW-15" value="Bénévole" style="shape=umlActor;verticalLabelPosition=bottom;verticalAlign=top;html=1;fillColor=#FAE5C7;strokeColor=#0F8B8D;fontColor=#143642;rounded=1;" parent="T7-tP2VTI22xgJnf27IW-1" vertex="1">
          <mxGeometry x="60" y="725" width="80" height="120" as="geometry" />
        </mxCell>
        <mxCell id="T7-tP2VTI22xgJnf27IW-16" value="Site web - Learn@Home&lt;br&gt;Page de connexion" style="text;html=1;strokeColor=none;fillColor=none;align=center;verticalAlign=middle;whiteSpace=wrap;fontColor=#143642;rounded=1;" parent="T7-tP2VTI22xgJnf27IW-1" vertex="1">
          <mxGeometry x="378.75" y="130" width="190" height="20" as="geometry" />
        </mxCell>
        <mxCell id="vIFXc8-yqB_IbpnFypGw-37" style="edgeStyle=orthogonalEdgeStyle;rounded=1;orthogonalLoop=1;jettySize=auto;html=1;exitX=0;exitY=0.5;exitDx=0;exitDy=0;fontColor=#143642;strokeColor=#A8201A;fillColor=#FAE5C7;endArrow=none;endFill=0;" parent="T7-tP2VTI22xgJnf27IW-1" source="T7-tP2VTI22xgJnf27IW-18" edge="1">
          <mxGeometry relative="1" as="geometry">
            <mxPoint x="284" y="540" as="targetPoint" />
          </mxGeometry>
        </mxCell>
        <mxCell id="T7-tP2VTI22xgJnf27IW-18" value="s&#39;identifier" style="ellipse;whiteSpace=wrap;html=1;fillColor=#FAE5C7;strokeColor=#0F8B8D;fontColor=#143642;rounded=1;" parent="T7-tP2VTI22xgJnf27IW-1" vertex="1">
          <mxGeometry x="313.75" y="500" width="120" height="80" as="geometry" />
        </mxCell>
        <mxCell id="T7-tP2VTI22xgJnf27IW-25" value="Afficher erreur de connexion" style="ellipse;whiteSpace=wrap;html=1;fillColor=#FAE5C7;strokeColor=#0F8B8D;fontColor=#143642;rounded=1;" parent="T7-tP2VTI22xgJnf27IW-1" vertex="1">
          <mxGeometry x="533.75" y="600" width="90" height="40" as="geometry" />
        </mxCell>
        <mxCell id="T7-tP2VTI22xgJnf27IW-26" value="redirection boite de dialogue renseigner un mail" style="ellipse;whiteSpace=wrap;html=1;fillColor=#FAE5C7;strokeColor=#0F8B8D;fontColor=#143642;rounded=1;" parent="T7-tP2VTI22xgJnf27IW-1" vertex="1">
          <mxGeometry x="513.75" y="170" width="130" height="60" as="geometry" />
        </mxCell>
        <mxCell id="T7-tP2VTI22xgJnf27IW-37" value="récupération d&#39;un MDP" style="ellipse;whiteSpace=wrap;html=1;fillColor=#FAE5C7;strokeColor=#0F8B8D;fontColor=#143642;rounded=1;" parent="T7-tP2VTI22xgJnf27IW-1" vertex="1">
          <mxGeometry x="327.75" y="860" width="120" height="80" as="geometry" />
        </mxCell>
        <mxCell id="vIFXc8-yqB_IbpnFypGw-35" style="edgeStyle=orthogonalEdgeStyle;rounded=1;orthogonalLoop=1;jettySize=auto;html=1;exitX=0;exitY=0.5;exitDx=0;exitDy=0;entryX=0;entryY=0.5;entryDx=0;entryDy=0;fontColor=#143642;strokeColor=#A8201A;fillColor=#FAE5C7;endArrow=none;endFill=0;" parent="T7-tP2VTI22xgJnf27IW-1" source="T7-tP2VTI22xgJnf27IW-38" target="T7-tP2VTI22xgJnf27IW-37" edge="1">
          <mxGeometry relative="1" as="geometry">
            <Array as="points">
              <mxPoint x="290" y="260" />
              <mxPoint x="290" y="900" />
            </Array>
          </mxGeometry>
        </mxCell>
        <mxCell id="T7-tP2VTI22xgJnf27IW-38" value="se créer un compte" style="ellipse;whiteSpace=wrap;html=1;fillColor=#FAE5C7;strokeColor=#0F8B8D;fontColor=#143642;rounded=1;" parent="T7-tP2VTI22xgJnf27IW-1" vertex="1">
          <mxGeometry x="323.75" y="220" width="120" height="80" as="geometry" />
        </mxCell>
        <mxCell id="T7-tP2VTI22xgJnf27IW-58" value="" style="edgeStyle=orthogonalEdgeStyle;orthogonalLoop=1;jettySize=auto;html=1;endArrow=none;" parent="T7-tP2VTI22xgJnf27IW-1" edge="1">
          <mxGeometry relative="1" as="geometry">
            <mxPoint x="153.75" y="500" as="sourcePoint" />
            <mxPoint x="153.75" y="500" as="targetPoint" />
          </mxGeometry>
        </mxCell>
        <mxCell id="vIFXc8-yqB_IbpnFypGw-38" style="edgeStyle=orthogonalEdgeStyle;rounded=1;orthogonalLoop=1;jettySize=auto;html=1;exitX=1;exitY=0.75;exitDx=0;exitDy=0;fontColor=#143642;endArrow=none;endFill=0;strokeColor=#A8201A;fillColor=#FAE5C7;" parent="T7-tP2VTI22xgJnf27IW-1" source="vIFXc8-yqB_IbpnFypGw-0" edge="1">
          <mxGeometry relative="1" as="geometry">
            <mxPoint x="290" y="540" as="targetPoint" />
            <Array as="points">
              <mxPoint x="190" y="540" />
            </Array>
          </mxGeometry>
        </mxCell>
        <mxCell id="vIFXc8-yqB_IbpnFypGw-0" value="" style="shape=actor;whiteSpace=wrap;html=1;fontColor=#143642;strokeColor=#0F8B8D;fillColor=#FAE5C7;rounded=1;" parent="T7-tP2VTI22xgJnf27IW-1" vertex="1">
          <mxGeometry x="109.99000000000001" y="470" width="80" height="90" as="geometry" />
        </mxCell>
        <mxCell id="vIFXc8-yqB_IbpnFypGw-7" value="" style="html=1;shadow=0;dashed=0;align=center;verticalAlign=middle;shape=mxgraph.arrows2.tailedNotchedArrow;dy1=4.67;dx1=33.33;notch=53.34;arrowHead=20;dx2=15.01;dy2=44.67;rounded=1;fontColor=#143642;strokeColor=#0F8B8D;fillColor=#FAE5C7;rotation=-90;" parent="T7-tP2VTI22xgJnf27IW-1" vertex="1">
          <mxGeometry x="86.87" y="583.76" width="126.25" height="118.75" as="geometry" />
        </mxCell>
        <mxCell id="vIFXc8-yqB_IbpnFypGw-26" value="mail avec MDP" style="ellipse;whiteSpace=wrap;html=1;fillColor=#FAE5C7;strokeColor=#0F8B8D;fontColor=#143642;rounded=1;" parent="T7-tP2VTI22xgJnf27IW-1" vertex="1">
          <mxGeometry x="528.75" y="280" width="100" height="50" as="geometry" />
        </mxCell>
        <mxCell id="vIFXc8-yqB_IbpnFypGw-30" value="vérification de l&#39;adresse mail et MDP" style="ellipse;whiteSpace=wrap;html=1;fillColor=#FAE5C7;strokeColor=#0F8B8D;fontColor=#143642;rounded=1;" parent="T7-tP2VTI22xgJnf27IW-1" vertex="1">
          <mxGeometry x="527.75" y="450" width="110" height="55" as="geometry" />
        </mxCell>
        <mxCell id="vIFXc8-yqB_IbpnFypGw-31" value="Use" style="endArrow=open;endSize=12;dashed=1;html=1;fontColor=#143642;strokeColor=#A8201A;fillColor=#FAE5C7;entryX=0.5;entryY=1;entryDx=0;entryDy=0;exitX=1;exitY=0.5;exitDx=0;exitDy=0;" parent="T7-tP2VTI22xgJnf27IW-1" source="T7-tP2VTI22xgJnf27IW-18" target="vIFXc8-yqB_IbpnFypGw-30" edge="1">
          <mxGeometry width="160" relative="1" as="geometry">
            <mxPoint x="433.75" y="450" as="sourcePoint" />
            <mxPoint x="593.75" y="450" as="targetPoint" />
            <Array as="points">
              <mxPoint x="582.75" y="540" />
            </Array>
          </mxGeometry>
        </mxCell>
        <mxCell id="vIFXc8-yqB_IbpnFypGw-32" style="edgeStyle=orthogonalEdgeStyle;rounded=1;orthogonalLoop=1;jettySize=auto;html=1;exitX=0.5;exitY=1;exitDx=0;exitDy=0;fontColor=#143642;strokeColor=#A8201A;fillColor=#FAE5C7;" parent="T7-tP2VTI22xgJnf27IW-1" source="T7-tP2VTI22xgJnf27IW-25" target="T7-tP2VTI22xgJnf27IW-25" edge="1">
          <mxGeometry relative="1" as="geometry" />
        </mxCell>
        <mxCell id="vIFXc8-yqB_IbpnFypGw-39" value="Utilisateur" style="html=1;rounded=1;fontColor=#143642;strokeColor=none;fillColor=none;gradientColor=none;" parent="T7-tP2VTI22xgJnf27IW-1" vertex="1">
          <mxGeometry x="94.99000000000001" y="560" width="110" height="20" as="geometry" />
        </mxCell>
        <mxCell id="vIFXc8-yqB_IbpnFypGw-43" value="redirection boite de dialogue renseigner un mail" style="ellipse;whiteSpace=wrap;html=1;fillColor=#FAE5C7;strokeColor=#0F8B8D;fontColor=#143642;rounded=1;" parent="T7-tP2VTI22xgJnf27IW-1" vertex="1">
          <mxGeometry x="517.75" y="800" width="130" height="60" as="geometry" />
        </mxCell>
        <mxCell id="vIFXc8-yqB_IbpnFypGw-44" value="mail avec MDP provisoire" style="ellipse;whiteSpace=wrap;html=1;fillColor=#FAE5C7;strokeColor=#0F8B8D;fontColor=#143642;rounded=1;" parent="T7-tP2VTI22xgJnf27IW-1" vertex="1">
          <mxGeometry x="532.75" y="970" width="100" height="50" as="geometry" />
        </mxCell>
        <mxCell id="vIFXc8-yqB_IbpnFypGw-45" value="Use" style="endArrow=open;endSize=12;dashed=1;html=1;fontColor=#143642;strokeColor=#A8201A;fillColor=#FAE5C7;entryX=0.291;entryY=0.994;entryDx=0;entryDy=0;entryPerimeter=0;exitX=1;exitY=0.5;exitDx=0;exitDy=0;" parent="T7-tP2VTI22xgJnf27IW-1" source="T7-tP2VTI22xgJnf27IW-37" target="vIFXc8-yqB_IbpnFypGw-43" edge="1">
          <mxGeometry width="160" relative="1" as="geometry">
            <mxPoint x="453.75" y="780" as="sourcePoint" />
            <mxPoint x="617.75" y="760" as="targetPoint" />
            <Array as="points">
              <mxPoint x="493.75" y="900" />
              <mxPoint x="553.75" y="900" />
            </Array>
          </mxGeometry>
        </mxCell>
        <mxCell id="SIkhqP-_GWV80EuBHRG2-3" value="Extends" style="endArrow=block;endSize=16;endFill=0;html=1;dashed=1;fontColor=#143642;strokeColor=#A8201A;fillColor=#FAE5C7;exitX=0;exitY=0.5;exitDx=0;exitDy=0;" parent="T7-tP2VTI22xgJnf27IW-1" source="T7-tP2VTI22xgJnf27IW-25" edge="1">
          <mxGeometry x="-0.0344" width="160" relative="1" as="geometry">
            <mxPoint x="390" y="610" as="sourcePoint" />
            <mxPoint x="370" y="580" as="targetPoint" />
            <Array as="points">
              <mxPoint x="370" y="620" />
            </Array>
            <mxPoint as="offset" />
          </mxGeometry>
        </mxCell>
        <mxCell id="AV5BpGggAsdunmAclBKS-2" value="Extends" style="endArrow=block;endSize=16;endFill=0;html=1;dashed=1;fontColor=#143642;strokeColor=#A8201A;fillColor=#FAE5C7;exitX=0.5;exitY=1;exitDx=0;exitDy=0;entryX=0.5;entryY=0;entryDx=0;entryDy=0;" parent="T7-tP2VTI22xgJnf27IW-1" source="vIFXc8-yqB_IbpnFypGw-43" target="vIFXc8-yqB_IbpnFypGw-44" edge="1">
          <mxGeometry width="160" relative="1" as="geometry">
            <mxPoint x="357.75" y="980" as="sourcePoint" />
            <mxPoint x="517.75" y="980" as="targetPoint" />
          </mxGeometry>
        </mxCell>
        <mxCell id="AV5BpGggAsdunmAclBKS-3" value="Use" style="endArrow=open;endSize=12;dashed=1;html=1;fontColor=#143642;strokeColor=#A8201A;fillColor=#FAE5C7;entryX=0;entryY=1;entryDx=0;entryDy=0;exitX=1;exitY=0.5;exitDx=0;exitDy=0;" parent="T7-tP2VTI22xgJnf27IW-1" source="T7-tP2VTI22xgJnf27IW-38" target="T7-tP2VTI22xgJnf27IW-26" edge="1">
          <mxGeometry width="160" relative="1" as="geometry">
            <mxPoint x="443.7499999999998" y="255" as="sourcePoint" />
            <mxPoint x="592.75" y="220" as="targetPoint" />
            <Array as="points">
              <mxPoint x="532" y="260" />
            </Array>
          </mxGeometry>
        </mxCell>
        <mxCell id="AV5BpGggAsdunmAclBKS-4" value="Extends" style="endArrow=block;endSize=16;endFill=0;html=1;dashed=1;fontColor=#143642;strokeColor=#A8201A;fillColor=#FAE5C7;exitX=0.5;exitY=1;exitDx=0;exitDy=0;entryX=0.5;entryY=0;entryDx=0;entryDy=0;" parent="T7-tP2VTI22xgJnf27IW-1" source="T7-tP2VTI22xgJnf27IW-26" target="vIFXc8-yqB_IbpnFypGw-26" edge="1">
          <mxGeometry width="160" relative="1" as="geometry">
            <mxPoint x="578" y="240" as="sourcePoint" />
            <mxPoint x="578" y="280" as="targetPoint" />
          </mxGeometry>
        </mxCell>
      </root>
    </mxGraphModel>
  </diagram>
  <diagram name="Tableau de bord" id="7vRNYoXHy6zofyaoq5lK">
    <mxGraphModel dx="806" dy="490" grid="1" gridSize="10" guides="1" tooltips="1" connect="1" arrows="1" fold="1" page="1" pageScale="1" pageWidth="827" pageHeight="1169" background="#DAD2D8" math="0" shadow="0">
      <root>
        <mxCell id="w_TpRDTI5Lo37MBMUi1Y-0" />
        <mxCell id="w_TpRDTI5Lo37MBMUi1Y-1" parent="w_TpRDTI5Lo37MBMUi1Y-0" />
        <mxCell id="w_TpRDTI5Lo37MBMUi1Y-2" value="" style="rounded=1;whiteSpace=wrap;html=1;absoluteArcSize=1;arcSize=122;strokeWidth=2;fillColor=#FAE5C7;strokeColor=#0F8B8D;fontColor=#143642;" parent="w_TpRDTI5Lo37MBMUi1Y-1" vertex="1">
          <mxGeometry x="148.5" y="40" width="530" height="1060" as="geometry" />
        </mxCell>
        <mxCell id="yxCfLfp56Zcecskfy1Bl-11" style="edgeStyle=orthogonalEdgeStyle;rounded=1;orthogonalLoop=1;jettySize=auto;html=1;exitX=0;exitY=0.3333333333333333;exitDx=0;exitDy=0;exitPerimeter=0;entryX=1;entryY=0.5;entryDx=0;entryDy=0;fontColor=#143642;endArrow=none;endFill=0;strokeColor=#A8201A;fillColor=#FAE5C7;" parent="w_TpRDTI5Lo37MBMUi1Y-1" source="w_TpRDTI5Lo37MBMUi1Y-15" target="iO--3B0f1CHQBaqf1IRb-0" edge="1">
          <mxGeometry relative="1" as="geometry" />
        </mxCell>
        <mxCell id="yxCfLfp56Zcecskfy1Bl-12" style="edgeStyle=orthogonalEdgeStyle;rounded=1;orthogonalLoop=1;jettySize=auto;html=1;exitX=0;exitY=0.3333333333333333;exitDx=0;exitDy=0;exitPerimeter=0;entryX=1;entryY=0.5;entryDx=0;entryDy=0;fontColor=#143642;endArrow=none;endFill=0;strokeColor=#A8201A;fillColor=#FAE5C7;" parent="w_TpRDTI5Lo37MBMUi1Y-1" source="w_TpRDTI5Lo37MBMUi1Y-15" target="yxCfLfp56Zcecskfy1Bl-2" edge="1">
          <mxGeometry relative="1" as="geometry" />
        </mxCell>
        <mxCell id="yxCfLfp56Zcecskfy1Bl-13" style="edgeStyle=orthogonalEdgeStyle;rounded=1;orthogonalLoop=1;jettySize=auto;html=1;exitX=0;exitY=0.3333333333333333;exitDx=0;exitDy=0;exitPerimeter=0;entryX=1;entryY=0.5;entryDx=0;entryDy=0;fontColor=#143642;endArrow=none;endFill=0;strokeColor=#A8201A;fillColor=#FAE5C7;" parent="w_TpRDTI5Lo37MBMUi1Y-1" source="w_TpRDTI5Lo37MBMUi1Y-15" target="yxCfLfp56Zcecskfy1Bl-3" edge="1">
          <mxGeometry relative="1" as="geometry">
            <Array as="points">
              <mxPoint x="600" y="520" />
              <mxPoint x="600" y="690" />
            </Array>
          </mxGeometry>
        </mxCell>
        <mxCell id="yxCfLfp56Zcecskfy1Bl-14" style="edgeStyle=orthogonalEdgeStyle;rounded=1;orthogonalLoop=1;jettySize=auto;html=1;exitX=0;exitY=0.3333333333333333;exitDx=0;exitDy=0;exitPerimeter=0;entryX=1;entryY=0.5;entryDx=0;entryDy=0;fontColor=#143642;endArrow=none;endFill=0;strokeColor=#A8201A;fillColor=#FAE5C7;" parent="w_TpRDTI5Lo37MBMUi1Y-1" source="w_TpRDTI5Lo37MBMUi1Y-15" target="yxCfLfp56Zcecskfy1Bl-4" edge="1">
          <mxGeometry relative="1" as="geometry">
            <Array as="points">
              <mxPoint x="600" y="520" />
              <mxPoint x="600" y="910" />
            </Array>
          </mxGeometry>
        </mxCell>
        <mxCell id="w_TpRDTI5Lo37MBMUi1Y-15" value="Etudiant" style="shape=umlActor;verticalLabelPosition=bottom;verticalAlign=top;html=1;fillColor=#FAE5C7;strokeColor=#0F8B8D;fontColor=#143642;" parent="w_TpRDTI5Lo37MBMUi1Y-1" vertex="1">
          <mxGeometry x="703" y="450" width="100" height="210" as="geometry" />
        </mxCell>
        <mxCell id="w_TpRDTI5Lo37MBMUi1Y-16" value="Site web Learn@Home&lt;br&gt;Page tableau de bord" style="text;html=1;strokeColor=none;fillColor=none;align=center;verticalAlign=middle;whiteSpace=wrap;rounded=0;fontColor=#143642;" parent="w_TpRDTI5Lo37MBMUi1Y-1" vertex="1">
          <mxGeometry x="260" y="60" width="330" height="20" as="geometry" />
        </mxCell>
        <mxCell id="yxCfLfp56Zcecskfy1Bl-6" style="edgeStyle=orthogonalEdgeStyle;rounded=1;orthogonalLoop=1;jettySize=auto;html=1;exitX=1;exitY=0.3333333333333333;exitDx=0;exitDy=0;exitPerimeter=0;entryX=0;entryY=0.5;entryDx=0;entryDy=0;fontColor=#143642;endArrow=none;endFill=0;strokeColor=#A8201A;fillColor=#FAE5C7;" parent="w_TpRDTI5Lo37MBMUi1Y-1" source="I6GStk3AaxL9Cx8yptqd-5" target="iO--3B0f1CHQBaqf1IRb-0" edge="1">
          <mxGeometry relative="1" as="geometry" />
        </mxCell>
        <mxCell id="yxCfLfp56Zcecskfy1Bl-7" style="edgeStyle=orthogonalEdgeStyle;rounded=1;orthogonalLoop=1;jettySize=auto;html=1;exitX=1;exitY=0.3333333333333333;exitDx=0;exitDy=0;exitPerimeter=0;entryX=0;entryY=0.5;entryDx=0;entryDy=0;fontColor=#143642;endArrow=none;endFill=0;strokeColor=#A8201A;fillColor=#FAE5C7;" parent="w_TpRDTI5Lo37MBMUi1Y-1" source="I6GStk3AaxL9Cx8yptqd-5" target="yxCfLfp56Zcecskfy1Bl-2" edge="1">
          <mxGeometry relative="1" as="geometry" />
        </mxCell>
        <mxCell id="yxCfLfp56Zcecskfy1Bl-8" style="edgeStyle=orthogonalEdgeStyle;rounded=1;orthogonalLoop=1;jettySize=auto;html=1;exitX=1;exitY=0.3333333333333333;exitDx=0;exitDy=0;exitPerimeter=0;entryX=0;entryY=0.5;entryDx=0;entryDy=0;fontColor=#143642;endArrow=none;endFill=0;strokeColor=#A8201A;fillColor=#FAE5C7;" parent="w_TpRDTI5Lo37MBMUi1Y-1" source="I6GStk3AaxL9Cx8yptqd-5" target="yxCfLfp56Zcecskfy1Bl-3" edge="1">
          <mxGeometry relative="1" as="geometry">
            <Array as="points">
              <mxPoint x="230" y="520" />
              <mxPoint x="230" y="690" />
            </Array>
          </mxGeometry>
        </mxCell>
        <mxCell id="I6GStk3AaxL9Cx8yptqd-5" value="Enseignant" style="shape=umlActor;verticalLabelPosition=bottom;verticalAlign=top;html=1;fillColor=#FAE5C7;strokeColor=#0F8B8D;fontColor=#143642;" parent="w_TpRDTI5Lo37MBMUi1Y-1" vertex="1">
          <mxGeometry x="23" y="450" width="100" height="210" as="geometry" />
        </mxCell>
        <mxCell id="iO--3B0f1CHQBaqf1IRb-0" value="consulter planning" style="ellipse;whiteSpace=wrap;html=1;fillColor=#FAE5C7;strokeColor=#0F8B8D;fontColor=#143642;strokeWidth=3;" parent="w_TpRDTI5Lo37MBMUi1Y-1" vertex="1">
          <mxGeometry x="345" y="130" width="157" height="100" as="geometry" />
        </mxCell>
        <mxCell id="yxCfLfp56Zcecskfy1Bl-2" value="voir les messages non lus&lt;br&gt;&amp;nbsp;du chat" style="ellipse;whiteSpace=wrap;html=1;fillColor=#FAE5C7;strokeColor=#0F8B8D;fontColor=#143642;strokeWidth=3;" parent="w_TpRDTI5Lo37MBMUi1Y-1" vertex="1">
          <mxGeometry x="346.5" y="370" width="157" height="100" as="geometry" />
        </mxCell>
        <mxCell id="yxCfLfp56Zcecskfy1Bl-3" value="consulter les contacts" style="ellipse;whiteSpace=wrap;html=1;fillColor=#FAE5C7;strokeColor=#0F8B8D;fontColor=#143642;strokeWidth=3;" parent="w_TpRDTI5Lo37MBMUi1Y-1" vertex="1">
          <mxGeometry x="335" y="640" width="157" height="100" as="geometry" />
        </mxCell>
        <mxCell id="yxCfLfp56Zcecskfy1Bl-4" value="consulter sa liste de tâches" style="ellipse;whiteSpace=wrap;html=1;fillColor=#FAE5C7;strokeColor=#0F8B8D;fontColor=#143642;strokeWidth=3;" parent="w_TpRDTI5Lo37MBMUi1Y-1" vertex="1">
          <mxGeometry x="345" y="860" width="157" height="100" as="geometry" />
        </mxCell>
        <mxCell id="yxCfLfp56Zcecskfy1Bl-18" value="renvoi page planning" style="ellipse;whiteSpace=wrap;html=1;fillColor=#FAE5C7;strokeColor=#67AB9F;fontColor=#143642;strokeWidth=3;" parent="w_TpRDTI5Lo37MBMUi1Y-1" vertex="1">
          <mxGeometry x="277" y="270" width="85" height="60" as="geometry" />
        </mxCell>
        <mxCell id="yxCfLfp56Zcecskfy1Bl-19" value="renvoi page chat" style="ellipse;whiteSpace=wrap;html=1;fillColor=#FAE5C7;strokeColor=#67AB9F;fontColor=#143642;strokeWidth=3;" parent="w_TpRDTI5Lo37MBMUi1Y-1" vertex="1">
          <mxGeometry x="277" y="500" width="85" height="60" as="geometry" />
        </mxCell>
        <mxCell id="yxCfLfp56Zcecskfy1Bl-21" value="renvoi page contacts" style="ellipse;whiteSpace=wrap;html=1;fillColor=#FAE5C7;strokeColor=#67AB9F;fontColor=#143642;strokeWidth=3;" parent="w_TpRDTI5Lo37MBMUi1Y-1" vertex="1">
          <mxGeometry x="260" y="770" width="85" height="60" as="geometry" />
        </mxCell>
        <mxCell id="yxCfLfp56Zcecskfy1Bl-23" value="renvoi page Gestion des tâches" style="ellipse;whiteSpace=wrap;html=1;fillColor=#FAE5C7;strokeColor=#67AB9F;fontColor=#143642;strokeWidth=3;" parent="w_TpRDTI5Lo37MBMUi1Y-1" vertex="1">
          <mxGeometry x="251.5" y="980" width="85" height="60" as="geometry" />
        </mxCell>
        <mxCell id="ihjIEii8rUMNL_wf_hiW-0" value="Extends" style="endArrow=block;endSize=16;endFill=0;html=1;fontColor=#143642;strokeColor=#A8201A;fillColor=#FAE5C7;entryX=0.5;entryY=0;entryDx=0;entryDy=0;exitX=0.024;exitY=0.679;exitDx=0;exitDy=0;exitPerimeter=0;dashed=1;" parent="w_TpRDTI5Lo37MBMUi1Y-1" source="yxCfLfp56Zcecskfy1Bl-4" target="yxCfLfp56Zcecskfy1Bl-23" edge="1">
          <mxGeometry width="160" relative="1" as="geometry">
            <mxPoint x="323" y="846" as="sourcePoint" />
            <mxPoint x="483" y="846" as="targetPoint" />
          </mxGeometry>
        </mxCell>
        <mxCell id="ihjIEii8rUMNL_wf_hiW-1" value="Extends" style="endArrow=block;endSize=16;endFill=0;html=1;fontColor=#143642;strokeColor=#A8201A;fillColor=#FAE5C7;entryX=0.611;entryY=-0.024;entryDx=0;entryDy=0;exitX=0.069;exitY=0.832;exitDx=0;exitDy=0;exitPerimeter=0;dashed=1;entryPerimeter=0;" parent="w_TpRDTI5Lo37MBMUi1Y-1" source="yxCfLfp56Zcecskfy1Bl-3" target="yxCfLfp56Zcecskfy1Bl-21" edge="1">
          <mxGeometry width="160" relative="1" as="geometry">
            <mxPoint x="366.99800000000005" y="597.8999999999999" as="sourcePoint" />
            <mxPoint x="301.73" y="644.6100000000004" as="targetPoint" />
          </mxGeometry>
        </mxCell>
        <mxCell id="ihjIEii8rUMNL_wf_hiW-2" value="Extends" style="endArrow=block;endSize=16;endFill=0;html=1;fontColor=#143642;strokeColor=#A8201A;fillColor=#FAE5C7;entryX=0.5;entryY=0;entryDx=0;entryDy=0;dashed=1;exitX=0;exitY=1;exitDx=0;exitDy=0;" parent="w_TpRDTI5Lo37MBMUi1Y-1" source="yxCfLfp56Zcecskfy1Bl-2" target="yxCfLfp56Zcecskfy1Bl-19" edge="1">
          <mxGeometry width="160" relative="1" as="geometry">
            <mxPoint x="373" y="396" as="sourcePoint" />
            <mxPoint x="313.005" y="450.00000000000034" as="targetPoint" />
          </mxGeometry>
        </mxCell>
        <mxCell id="ihjIEii8rUMNL_wf_hiW-3" value="Extends" style="endArrow=block;endSize=16;endFill=0;html=1;fontColor=#143642;strokeColor=#A8201A;fillColor=#FAE5C7;entryX=0.5;entryY=0;entryDx=0;entryDy=0;dashed=1;exitX=0;exitY=1;exitDx=0;exitDy=0;" parent="w_TpRDTI5Lo37MBMUi1Y-1" source="iO--3B0f1CHQBaqf1IRb-0" target="yxCfLfp56Zcecskfy1Bl-18" edge="1">
          <mxGeometry width="160" relative="1" as="geometry">
            <mxPoint x="387.46688108957915" y="259.9992574884494" as="sourcePoint" />
            <mxPoint x="313" y="284.65999999999997" as="targetPoint" />
          </mxGeometry>
        </mxCell>
      </root>
    </mxGraphModel>
  </diagram>
  <diagram name="chat" id="XCGGalB2610iWh_pyYio">
    <mxGraphModel dx="806" dy="490" grid="1" gridSize="10" guides="1" tooltips="1" connect="1" arrows="1" fold="1" page="1" pageScale="1" pageWidth="827" pageHeight="1169" background="#DAD2D8" math="0" shadow="0">
      <root>
        <mxCell id="jUjPNulSDmA4rLi2D7U4-0" />
        <mxCell id="jUjPNulSDmA4rLi2D7U4-1" parent="jUjPNulSDmA4rLi2D7U4-0" />
        <mxCell id="SbxhVR2RaEPP9orIsQn3-0" value="" style="rounded=1;whiteSpace=wrap;html=1;absoluteArcSize=1;arcSize=122;strokeWidth=2;fillColor=#FAE5C7;strokeColor=#0F8B8D;fontColor=#143642;" parent="jUjPNulSDmA4rLi2D7U4-1" vertex="1">
          <mxGeometry x="203" y="30" width="420" height="980" as="geometry" />
        </mxCell>
        <mxCell id="SbxhVR2RaEPP9orIsQn3-3" style="edgeStyle=orthogonalEdgeStyle;rounded=1;orthogonalLoop=1;jettySize=auto;html=1;exitX=1;exitY=0.3333333333333333;exitDx=0;exitDy=0;exitPerimeter=0;entryX=0;entryY=0.5;entryDx=0;entryDy=0;fontColor=#143642;endArrow=classic;endFill=1;strokeColor=#A8201A;fillColor=#FAE5C7;" parent="jUjPNulSDmA4rLi2D7U4-1" source="SbxhVR2RaEPP9orIsQn3-7" target="SbxhVR2RaEPP9orIsQn3-14" edge="1">
          <mxGeometry relative="1" as="geometry" />
        </mxCell>
        <mxCell id="SbxhVR2RaEPP9orIsQn3-4" style="edgeStyle=orthogonalEdgeStyle;rounded=1;orthogonalLoop=1;jettySize=auto;html=1;exitX=1;exitY=0.3333333333333333;exitDx=0;exitDy=0;exitPerimeter=0;entryX=0;entryY=0.5;entryDx=0;entryDy=0;fontColor=#143642;endArrow=classic;endFill=1;strokeColor=#A8201A;fillColor=#FAE5C7;" parent="jUjPNulSDmA4rLi2D7U4-1" source="SbxhVR2RaEPP9orIsQn3-7" target="SbxhVR2RaEPP9orIsQn3-13" edge="1">
          <mxGeometry relative="1" as="geometry" />
        </mxCell>
        <mxCell id="SbxhVR2RaEPP9orIsQn3-5" style="edgeStyle=orthogonalEdgeStyle;rounded=1;orthogonalLoop=1;jettySize=auto;html=1;exitX=1;exitY=0.3333333333333333;exitDx=0;exitDy=0;exitPerimeter=0;entryX=0;entryY=0.5;entryDx=0;entryDy=0;fontColor=#143642;endArrow=classic;endFill=1;strokeColor=#A8201A;fillColor=#FAE5C7;" parent="jUjPNulSDmA4rLi2D7U4-1" source="SbxhVR2RaEPP9orIsQn3-7" target="SbxhVR2RaEPP9orIsQn3-12" edge="1">
          <mxGeometry relative="1" as="geometry" />
        </mxCell>
        <mxCell id="SbxhVR2RaEPP9orIsQn3-6" style="edgeStyle=orthogonalEdgeStyle;rounded=1;orthogonalLoop=1;jettySize=auto;html=1;exitX=1;exitY=0.3333333333333333;exitDx=0;exitDy=0;exitPerimeter=0;entryX=0;entryY=0.5;entryDx=0;entryDy=0;fontColor=#143642;endArrow=classic;endFill=1;strokeColor=#A8201A;fillColor=#FAE5C7;" parent="jUjPNulSDmA4rLi2D7U4-1" source="SbxhVR2RaEPP9orIsQn3-7" target="SbxhVR2RaEPP9orIsQn3-11" edge="1">
          <mxGeometry relative="1" as="geometry" />
        </mxCell>
        <mxCell id="SbxhVR2RaEPP9orIsQn3-7" value="Bénévole" style="shape=umlActor;verticalLabelPosition=bottom;verticalAlign=top;html=1;fillColor=#FAE5C7;strokeColor=#0F8B8D;fontColor=#143642;" parent="jUjPNulSDmA4rLi2D7U4-1" vertex="1">
          <mxGeometry x="20" y="515" width="100" height="210" as="geometry" />
        </mxCell>
        <mxCell id="SbxhVR2RaEPP9orIsQn3-8" style="edgeStyle=orthogonalEdgeStyle;rounded=1;orthogonalLoop=1;jettySize=auto;html=1;exitX=0;exitY=0.3333333333333333;exitDx=0;exitDy=0;exitPerimeter=0;entryX=1;entryY=0.5;entryDx=0;entryDy=0;fontColor=#143642;endArrow=classic;endFill=1;strokeColor=#A8201A;fillColor=#FAE5C7;" parent="jUjPNulSDmA4rLi2D7U4-1" source="SbxhVR2RaEPP9orIsQn3-9" target="SbxhVR2RaEPP9orIsQn3-13" edge="1">
          <mxGeometry relative="1" as="geometry" />
        </mxCell>
        <mxCell id="SbxhVR2RaEPP9orIsQn3-27" style="edgeStyle=orthogonalEdgeStyle;rounded=1;orthogonalLoop=1;jettySize=auto;html=1;exitX=0;exitY=0.3333333333333333;exitDx=0;exitDy=0;exitPerimeter=0;entryX=1;entryY=0.5;entryDx=0;entryDy=0;fontColor=#143642;endArrow=classic;endFill=1;strokeColor=#A8201A;fillColor=#FAE5C7;" parent="jUjPNulSDmA4rLi2D7U4-1" source="SbxhVR2RaEPP9orIsQn3-9" target="SbxhVR2RaEPP9orIsQn3-11" edge="1">
          <mxGeometry relative="1" as="geometry" />
        </mxCell>
        <mxCell id="SbxhVR2RaEPP9orIsQn3-28" style="edgeStyle=orthogonalEdgeStyle;rounded=1;orthogonalLoop=1;jettySize=auto;html=1;exitX=0;exitY=0.3333333333333333;exitDx=0;exitDy=0;exitPerimeter=0;entryX=1;entryY=0.5;entryDx=0;entryDy=0;fontColor=#143642;endArrow=classic;endFill=1;strokeColor=#A8201A;fillColor=#FAE5C7;" parent="jUjPNulSDmA4rLi2D7U4-1" source="SbxhVR2RaEPP9orIsQn3-9" target="SbxhVR2RaEPP9orIsQn3-12" edge="1">
          <mxGeometry relative="1" as="geometry" />
        </mxCell>
        <mxCell id="SbxhVR2RaEPP9orIsQn3-29" style="edgeStyle=orthogonalEdgeStyle;rounded=1;orthogonalLoop=1;jettySize=auto;html=1;exitX=0;exitY=0.3333333333333333;exitDx=0;exitDy=0;exitPerimeter=0;entryX=1;entryY=0.5;entryDx=0;entryDy=0;fontColor=#143642;endArrow=classic;endFill=1;strokeColor=#A8201A;fillColor=#FAE5C7;" parent="jUjPNulSDmA4rLi2D7U4-1" source="SbxhVR2RaEPP9orIsQn3-9" target="SbxhVR2RaEPP9orIsQn3-14" edge="1">
          <mxGeometry relative="1" as="geometry" />
        </mxCell>
        <mxCell id="SbxhVR2RaEPP9orIsQn3-9" value="Elève" style="shape=umlActor;verticalLabelPosition=bottom;verticalAlign=top;html=1;fillColor=#FAE5C7;strokeColor=#0F8B8D;fontColor=#143642;" parent="jUjPNulSDmA4rLi2D7U4-1" vertex="1">
          <mxGeometry x="690" y="515" width="100" height="210" as="geometry" />
        </mxCell>
        <mxCell id="SbxhVR2RaEPP9orIsQn3-10" value="Site web Learn@Home&lt;br&gt;Page Chat" style="text;html=1;strokeColor=none;fillColor=none;align=center;verticalAlign=middle;whiteSpace=wrap;rounded=0;fontColor=#143642;" parent="jUjPNulSDmA4rLi2D7U4-1" vertex="1">
          <mxGeometry x="248" y="40" width="330" height="20" as="geometry" />
        </mxCell>
        <mxCell id="SbxhVR2RaEPP9orIsQn3-11" value="sélectionner un contact" style="ellipse;whiteSpace=wrap;html=1;fillColor=#FAE5C7;strokeColor=#0F8B8D;fontColor=#143642;strokeWidth=3;" parent="jUjPNulSDmA4rLi2D7U4-1" vertex="1">
          <mxGeometry x="332.5" y="130" width="157" height="100" as="geometry" />
        </mxCell>
        <mxCell id="SbxhVR2RaEPP9orIsQn3-12" value="visualiser ses salons de discussion" style="ellipse;whiteSpace=wrap;html=1;fillColor=#FAE5C7;strokeColor=#0F8B8D;fontColor=#143642;strokeWidth=3;" parent="jUjPNulSDmA4rLi2D7U4-1" vertex="1">
          <mxGeometry x="332.5" y="330" width="157" height="100" as="geometry" />
        </mxCell>
        <mxCell id="SbxhVR2RaEPP9orIsQn3-13" value="écrire à un contact" style="ellipse;whiteSpace=wrap;html=1;fillColor=#FAE5C7;strokeColor=#0F8B8D;fontColor=#143642;strokeWidth=3;" parent="jUjPNulSDmA4rLi2D7U4-1" vertex="1">
          <mxGeometry x="332.5" y="535" width="157" height="100" as="geometry" />
        </mxCell>
        <mxCell id="SbxhVR2RaEPP9orIsQn3-14" value="supprimer une discussion d&#39;un contact ou un salon" style="ellipse;whiteSpace=wrap;html=1;fillColor=#FAE5C7;strokeColor=#0F8B8D;fontColor=#143642;strokeWidth=3;" parent="jUjPNulSDmA4rLi2D7U4-1" vertex="1">
          <mxGeometry x="335" y="780" width="157" height="100" as="geometry" />
        </mxCell>
        <mxCell id="SbxhVR2RaEPP9orIsQn3-17" value="Extends" style="endArrow=block;endSize=16;endFill=0;html=1;fontColor=#143642;strokeColor=#A8201A;fillColor=#FAE5C7;exitX=0;exitY=1;exitDx=0;exitDy=0;entryX=0.5;entryY=0;entryDx=0;entryDy=0;dashed=1;" parent="jUjPNulSDmA4rLi2D7U4-1" source="SbxhVR2RaEPP9orIsQn3-11" target="SbxhVR2RaEPP9orIsQn3-18" edge="1">
          <mxGeometry width="160" relative="1" as="geometry">
            <mxPoint x="310" y="220" as="sourcePoint" />
            <mxPoint x="320" y="230" as="targetPoint" />
          </mxGeometry>
        </mxCell>
        <mxCell id="SbxhVR2RaEPP9orIsQn3-18" value="fiche du contact" style="ellipse;whiteSpace=wrap;html=1;fillColor=#FAE5C7;strokeColor=#67AB9F;fontColor=#143642;strokeWidth=3;" parent="jUjPNulSDmA4rLi2D7U4-1" vertex="1">
          <mxGeometry x="260" y="250" width="85" height="60" as="geometry" />
        </mxCell>
        <mxCell id="SbxhVR2RaEPP9orIsQn3-19" value="Extends" style="endArrow=block;endSize=16;endFill=0;html=1;fontColor=#143642;strokeColor=#A8201A;fillColor=#FAE5C7;exitX=0.812;exitY=0.9;exitDx=0;exitDy=0;entryX=0.5;entryY=0;entryDx=0;entryDy=0;exitPerimeter=0;dashed=1;" parent="jUjPNulSDmA4rLi2D7U4-1" source="SbxhVR2RaEPP9orIsQn3-12" target="SbxhVR2RaEPP9orIsQn3-20" edge="1">
          <mxGeometry width="160" relative="1" as="geometry">
            <mxPoint x="357.1697415397623" y="369.9981143975883" as="sourcePoint" />
            <mxPoint x="320" y="424.53" as="targetPoint" />
          </mxGeometry>
        </mxCell>
        <mxCell id="SbxhVR2RaEPP9orIsQn3-20" value="salon de discussion" style="ellipse;whiteSpace=wrap;html=1;fillColor=#FAE5C7;strokeColor=#67AB9F;fontColor=#143642;strokeWidth=3;" parent="jUjPNulSDmA4rLi2D7U4-1" vertex="1">
          <mxGeometry x="460" y="455" width="85" height="60" as="geometry" />
        </mxCell>
      </root>
    </mxGraphModel>
  </diagram>
  <diagram name="calendrier" id="0_O6Pmq6TEKiq96XmSJO">
    <mxGraphModel dx="2687" dy="1633" grid="1" gridSize="10" guides="1" tooltips="1" connect="1" arrows="1" fold="1" page="1" pageScale="1" pageWidth="827" pageHeight="1169" background="#DAD2D8" math="0" shadow="0">
      <root>
        <mxCell id="DOf-S0gyCv8YP7Yz2hiO-0" />
        <mxCell id="DOf-S0gyCv8YP7Yz2hiO-1" parent="DOf-S0gyCv8YP7Yz2hiO-0" />
        <mxCell id="1ntwQA6LffT0qTcVlcce-0" value="" style="rounded=1;whiteSpace=wrap;html=1;absoluteArcSize=1;arcSize=122;strokeWidth=2;fillColor=#FAE5C7;strokeColor=#0F8B8D;fontColor=#143642;" parent="DOf-S0gyCv8YP7Yz2hiO-1" vertex="1">
          <mxGeometry x="203" y="30" width="420" height="1120" as="geometry" />
        </mxCell>
        <mxCell id="1ntwQA6LffT0qTcVlcce-1" style="edgeStyle=orthogonalEdgeStyle;rounded=1;orthogonalLoop=1;jettySize=auto;html=1;exitX=1;exitY=0.3333333333333333;exitDx=0;exitDy=0;exitPerimeter=0;entryX=0;entryY=0.5;entryDx=0;entryDy=0;fontColor=#143642;endArrow=classic;endFill=1;strokeColor=#A8201A;fillColor=#FAE5C7;" parent="DOf-S0gyCv8YP7Yz2hiO-1" source="1ntwQA6LffT0qTcVlcce-7" target="1ntwQA6LffT0qTcVlcce-18" edge="1">
          <mxGeometry relative="1" as="geometry" />
        </mxCell>
        <mxCell id="1ntwQA6LffT0qTcVlcce-2" style="edgeStyle=orthogonalEdgeStyle;rounded=1;orthogonalLoop=1;jettySize=auto;html=1;exitX=1;exitY=0.3333333333333333;exitDx=0;exitDy=0;exitPerimeter=0;entryX=0;entryY=0.5;entryDx=0;entryDy=0;fontColor=#143642;endArrow=classic;endFill=1;strokeColor=#A8201A;fillColor=#FAE5C7;" parent="DOf-S0gyCv8YP7Yz2hiO-1" source="1ntwQA6LffT0qTcVlcce-7" target="1ntwQA6LffT0qTcVlcce-17" edge="1">
          <mxGeometry relative="1" as="geometry" />
        </mxCell>
        <mxCell id="1ntwQA6LffT0qTcVlcce-3" style="edgeStyle=orthogonalEdgeStyle;rounded=1;orthogonalLoop=1;jettySize=auto;html=1;exitX=1;exitY=0.3333333333333333;exitDx=0;exitDy=0;exitPerimeter=0;entryX=0;entryY=0.5;entryDx=0;entryDy=0;fontColor=#143642;endArrow=classic;endFill=1;strokeColor=#A8201A;fillColor=#FAE5C7;" parent="DOf-S0gyCv8YP7Yz2hiO-1" source="1ntwQA6LffT0qTcVlcce-7" target="1ntwQA6LffT0qTcVlcce-16" edge="1">
          <mxGeometry relative="1" as="geometry" />
        </mxCell>
        <mxCell id="1ntwQA6LffT0qTcVlcce-4" style="edgeStyle=orthogonalEdgeStyle;rounded=1;orthogonalLoop=1;jettySize=auto;html=1;exitX=1;exitY=0.3333333333333333;exitDx=0;exitDy=0;exitPerimeter=0;entryX=0;entryY=0.5;entryDx=0;entryDy=0;fontColor=#143642;endArrow=classic;endFill=1;strokeColor=#A8201A;fillColor=#FAE5C7;" parent="DOf-S0gyCv8YP7Yz2hiO-1" source="1ntwQA6LffT0qTcVlcce-7" target="1ntwQA6LffT0qTcVlcce-15" edge="1">
          <mxGeometry relative="1" as="geometry" />
        </mxCell>
        <mxCell id="1ntwQA6LffT0qTcVlcce-6" style="edgeStyle=orthogonalEdgeStyle;rounded=1;orthogonalLoop=1;jettySize=auto;html=1;exitX=1;exitY=0.3333333333333333;exitDx=0;exitDy=0;exitPerimeter=0;entryX=0;entryY=0.5;entryDx=0;entryDy=0;fontColor=#143642;endArrow=classic;endFill=1;strokeColor=#A8201A;fillColor=#FAE5C7;" parent="DOf-S0gyCv8YP7Yz2hiO-1" source="1ntwQA6LffT0qTcVlcce-7" target="1ntwQA6LffT0qTcVlcce-13" edge="1">
          <mxGeometry relative="1" as="geometry" />
        </mxCell>
        <mxCell id="1ntwQA6LffT0qTcVlcce-7" value="Bénévole" style="shape=umlActor;verticalLabelPosition=bottom;verticalAlign=top;html=1;fillColor=#FAE5C7;strokeColor=#0F8B8D;fontColor=#143642;" parent="DOf-S0gyCv8YP7Yz2hiO-1" vertex="1">
          <mxGeometry x="20" y="515" width="100" height="210" as="geometry" />
        </mxCell>
        <mxCell id="1ntwQA6LffT0qTcVlcce-32" style="edgeStyle=orthogonalEdgeStyle;rounded=1;orthogonalLoop=1;jettySize=auto;html=1;exitX=0;exitY=0.3333333333333333;exitDx=0;exitDy=0;exitPerimeter=0;entryX=1;entryY=0.5;entryDx=0;entryDy=0;fontColor=#143642;endArrow=classic;endFill=1;strokeColor=#A8201A;fillColor=#FAE5C7;" parent="DOf-S0gyCv8YP7Yz2hiO-1" source="1ntwQA6LffT0qTcVlcce-11" target="1ntwQA6LffT0qTcVlcce-15" edge="1">
          <mxGeometry relative="1" as="geometry" />
        </mxCell>
        <mxCell id="1ntwQA6LffT0qTcVlcce-11" value="Elève" style="shape=umlActor;verticalLabelPosition=bottom;verticalAlign=top;html=1;fillColor=#FAE5C7;strokeColor=#0F8B8D;fontColor=#143642;" parent="DOf-S0gyCv8YP7Yz2hiO-1" vertex="1">
          <mxGeometry x="690" y="515" width="100" height="210" as="geometry" />
        </mxCell>
        <mxCell id="1ntwQA6LffT0qTcVlcce-12" value="Site web Learn@Home&lt;br&gt;Page Calendrier" style="text;html=1;strokeColor=none;fillColor=none;align=center;verticalAlign=middle;whiteSpace=wrap;rounded=0;fontColor=#143642;" parent="DOf-S0gyCv8YP7Yz2hiO-1" vertex="1">
          <mxGeometry x="248" y="40" width="330" height="20" as="geometry" />
        </mxCell>
        <mxCell id="1ntwQA6LffT0qTcVlcce-13" value="sélectionner un contact" style="ellipse;whiteSpace=wrap;html=1;fillColor=#FAE5C7;strokeColor=#0F8B8D;fontColor=#143642;strokeWidth=3;" parent="DOf-S0gyCv8YP7Yz2hiO-1" vertex="1">
          <mxGeometry x="334" y="90" width="157" height="100" as="geometry" />
        </mxCell>
        <mxCell id="1ntwQA6LffT0qTcVlcce-15" value="visualiser son calendrier" style="ellipse;whiteSpace=wrap;html=1;fillColor=#FAE5C7;strokeColor=#0F8B8D;fontColor=#143642;strokeWidth=3;" parent="DOf-S0gyCv8YP7Yz2hiO-1" vertex="1">
          <mxGeometry x="335" y="300" width="157" height="100" as="geometry" />
        </mxCell>
        <mxCell id="1ntwQA6LffT0qTcVlcce-16" value="écrire une note" style="ellipse;whiteSpace=wrap;html=1;fillColor=#FAE5C7;strokeColor=#0F8B8D;fontColor=#143642;strokeWidth=3;" parent="DOf-S0gyCv8YP7Yz2hiO-1" vertex="1">
          <mxGeometry x="335" y="500" width="157" height="100" as="geometry" />
        </mxCell>
        <mxCell id="1ntwQA6LffT0qTcVlcce-17" value="prendre rendez-vous avec un contact" style="ellipse;whiteSpace=wrap;html=1;fillColor=#FAE5C7;strokeColor=#0F8B8D;fontColor=#143642;strokeWidth=3;" parent="DOf-S0gyCv8YP7Yz2hiO-1" vertex="1">
          <mxGeometry x="334" y="725" width="157" height="100" as="geometry" />
        </mxCell>
        <mxCell id="1ntwQA6LffT0qTcVlcce-18" value="consulté la liste de tâche d&#39;un contact" style="ellipse;whiteSpace=wrap;html=1;fillColor=#FAE5C7;strokeColor=#0F8B8D;fontColor=#143642;strokeWidth=3;" parent="DOf-S0gyCv8YP7Yz2hiO-1" vertex="1">
          <mxGeometry x="332.5" y="962" width="157" height="100" as="geometry" />
        </mxCell>
        <mxCell id="1ntwQA6LffT0qTcVlcce-19" value="Extends" style="endArrow=block;endSize=16;endFill=0;html=1;fontColor=#143642;strokeColor=#A8201A;fillColor=#FAE5C7;exitX=0;exitY=1;exitDx=0;exitDy=0;entryX=0.5;entryY=0;entryDx=0;entryDy=0;" parent="DOf-S0gyCv8YP7Yz2hiO-1" source="1ntwQA6LffT0qTcVlcce-13" target="1ntwQA6LffT0qTcVlcce-20" edge="1">
          <mxGeometry width="160" relative="1" as="geometry">
            <mxPoint x="310" y="220" as="sourcePoint" />
            <mxPoint x="320" y="230" as="targetPoint" />
          </mxGeometry>
        </mxCell>
        <mxCell id="1ntwQA6LffT0qTcVlcce-20" value="&lt;span&gt;fiche du contact&lt;/span&gt;" style="ellipse;whiteSpace=wrap;html=1;fillColor=#FAE5C7;strokeColor=#67AB9F;fontColor=#143642;strokeWidth=3;" parent="DOf-S0gyCv8YP7Yz2hiO-1" vertex="1">
          <mxGeometry x="260" y="220" width="85" height="60" as="geometry" />
        </mxCell>
      </root>
    </mxGraphModel>
  </diagram>
  <diagram name="Gestion de taches" id="CNfCnqIy1nOt1JhxOm4d">
    <mxGraphModel dx="806" dy="490" grid="1" gridSize="10" guides="1" tooltips="1" connect="1" arrows="1" fold="1" page="1" pageScale="1" pageWidth="827" pageHeight="1169" background="#DAD2D8" math="0" shadow="0">
      <root>
        <mxCell id="WXTtPWbgd7FlGvqmc448-0" />
        <mxCell id="WXTtPWbgd7FlGvqmc448-1" parent="WXTtPWbgd7FlGvqmc448-0" />
        <mxCell id="wHXIrMfXZqtEA2M9oa7I-0" value="" style="rounded=1;whiteSpace=wrap;html=1;absoluteArcSize=1;arcSize=122;strokeWidth=2;fillColor=#FAE5C7;strokeColor=#0F8B8D;fontColor=#143642;" parent="WXTtPWbgd7FlGvqmc448-1" vertex="1">
          <mxGeometry x="203" y="30" width="420" height="1000" as="geometry" />
        </mxCell>
        <mxCell id="xKzWtt5PrQXULl82wDnu-2" style="edgeStyle=orthogonalEdgeStyle;rounded=1;orthogonalLoop=1;jettySize=auto;html=1;exitX=1;exitY=0.3333333333333333;exitDx=0;exitDy=0;exitPerimeter=0;entryX=0;entryY=0.5;entryDx=0;entryDy=0;fontColor=#143642;endArrow=classic;endFill=1;strokeColor=#A8201A;fillColor=#FAE5C7;" parent="WXTtPWbgd7FlGvqmc448-1" source="wHXIrMfXZqtEA2M9oa7I-1" target="wHXIrMfXZqtEA2M9oa7I-6" edge="1">
          <mxGeometry relative="1" as="geometry" />
        </mxCell>
        <mxCell id="xKzWtt5PrQXULl82wDnu-4" style="edgeStyle=orthogonalEdgeStyle;rounded=1;orthogonalLoop=1;jettySize=auto;html=1;exitX=1;exitY=0.3333333333333333;exitDx=0;exitDy=0;exitPerimeter=0;entryX=0;entryY=0.5;entryDx=0;entryDy=0;fontColor=#143642;endArrow=classic;endFill=1;strokeColor=#A8201A;fillColor=#FAE5C7;" parent="WXTtPWbgd7FlGvqmc448-1" source="wHXIrMfXZqtEA2M9oa7I-1" target="wHXIrMfXZqtEA2M9oa7I-7" edge="1">
          <mxGeometry relative="1" as="geometry" />
        </mxCell>
        <mxCell id="s_U7M8CdzGXlAqBTSheY-1" style="edgeStyle=orthogonalEdgeStyle;rounded=1;orthogonalLoop=1;jettySize=auto;html=1;exitX=1;exitY=0.3333333333333333;exitDx=0;exitDy=0;exitPerimeter=0;entryX=0;entryY=0.5;entryDx=0;entryDy=0;fontColor=#143642;endArrow=classic;endFill=1;strokeColor=#A8201A;fillColor=#FAE5C7;" parent="WXTtPWbgd7FlGvqmc448-1" source="wHXIrMfXZqtEA2M9oa7I-1" target="s_U7M8CdzGXlAqBTSheY-0" edge="1">
          <mxGeometry relative="1" as="geometry" />
        </mxCell>
        <mxCell id="wHXIrMfXZqtEA2M9oa7I-1" value="Bénévole" style="shape=umlActor;verticalLabelPosition=bottom;verticalAlign=top;html=1;fillColor=#FAE5C7;strokeColor=#0F8B8D;fontColor=#143642;" parent="WXTtPWbgd7FlGvqmc448-1" vertex="1">
          <mxGeometry x="40" y="425" width="100" height="210" as="geometry" />
        </mxCell>
        <mxCell id="xKzWtt5PrQXULl82wDnu-1" style="edgeStyle=orthogonalEdgeStyle;rounded=1;orthogonalLoop=1;jettySize=auto;html=1;exitX=0;exitY=0.3333333333333333;exitDx=0;exitDy=0;exitPerimeter=0;entryX=1;entryY=0.5;entryDx=0;entryDy=0;fontColor=#143642;endArrow=classic;endFill=1;strokeColor=#A8201A;fillColor=#FAE5C7;" parent="WXTtPWbgd7FlGvqmc448-1" source="wHXIrMfXZqtEA2M9oa7I-2" target="g7iJF341yFUH4qKAj3CY-1" edge="1">
          <mxGeometry relative="1" as="geometry" />
        </mxCell>
        <mxCell id="xKzWtt5PrQXULl82wDnu-7" style="edgeStyle=orthogonalEdgeStyle;rounded=1;orthogonalLoop=1;jettySize=auto;html=1;exitX=0;exitY=0.3333333333333333;exitDx=0;exitDy=0;exitPerimeter=0;entryX=1;entryY=0.5;entryDx=0;entryDy=0;fontColor=#143642;endArrow=classic;endFill=1;strokeColor=#A8201A;fillColor=#FAE5C7;" parent="WXTtPWbgd7FlGvqmc448-1" source="wHXIrMfXZqtEA2M9oa7I-2" target="wHXIrMfXZqtEA2M9oa7I-7" edge="1">
          <mxGeometry relative="1" as="geometry" />
        </mxCell>
        <mxCell id="xKzWtt5PrQXULl82wDnu-8" style="edgeStyle=orthogonalEdgeStyle;rounded=1;orthogonalLoop=1;jettySize=auto;html=1;exitX=0;exitY=0.3333333333333333;exitDx=0;exitDy=0;exitPerimeter=0;entryX=1;entryY=0.5;entryDx=0;entryDy=0;fontColor=#143642;endArrow=classic;endFill=1;strokeColor=#A8201A;fillColor=#FAE5C7;" parent="WXTtPWbgd7FlGvqmc448-1" source="wHXIrMfXZqtEA2M9oa7I-2" target="wHXIrMfXZqtEA2M9oa7I-6" edge="1">
          <mxGeometry relative="1" as="geometry" />
        </mxCell>
        <mxCell id="s_U7M8CdzGXlAqBTSheY-2" style="edgeStyle=orthogonalEdgeStyle;rounded=1;orthogonalLoop=1;jettySize=auto;html=1;exitX=0;exitY=0.3333333333333333;exitDx=0;exitDy=0;exitPerimeter=0;entryX=1;entryY=0.5;entryDx=0;entryDy=0;fontColor=#143642;endArrow=classic;endFill=1;strokeColor=#A8201A;fillColor=#FAE5C7;" parent="WXTtPWbgd7FlGvqmc448-1" source="wHXIrMfXZqtEA2M9oa7I-2" target="g7iJF341yFUH4qKAj3CY-0" edge="1">
          <mxGeometry relative="1" as="geometry" />
        </mxCell>
        <mxCell id="wHXIrMfXZqtEA2M9oa7I-2" value="Elève" style="shape=umlActor;verticalLabelPosition=bottom;verticalAlign=top;html=1;fillColor=#FAE5C7;strokeColor=#0F8B8D;fontColor=#143642;" parent="WXTtPWbgd7FlGvqmc448-1" vertex="1">
          <mxGeometry x="690" y="425" width="100" height="210" as="geometry" />
        </mxCell>
        <mxCell id="wHXIrMfXZqtEA2M9oa7I-3" value="Site web Learn@Home&lt;br&gt;Page Gestion des tâches" style="text;html=1;strokeColor=none;fillColor=none;align=center;verticalAlign=middle;whiteSpace=wrap;rounded=0;fontColor=#143642;" parent="WXTtPWbgd7FlGvqmc448-1" vertex="1">
          <mxGeometry x="248" y="40" width="330" height="20" as="geometry" />
        </mxCell>
        <mxCell id="wHXIrMfXZqtEA2M9oa7I-6" value="ajouter une tâche" style="ellipse;whiteSpace=wrap;html=1;fillColor=#FAE5C7;strokeColor=#0F8B8D;fontColor=#143642;strokeWidth=3;" parent="WXTtPWbgd7FlGvqmc448-1" vertex="1">
          <mxGeometry x="335" y="470" width="157" height="100" as="geometry" />
        </mxCell>
        <mxCell id="wHXIrMfXZqtEA2M9oa7I-7" value="Ecrire une note" style="ellipse;whiteSpace=wrap;html=1;fillColor=#FAE5C7;strokeColor=#0F8B8D;fontColor=#143642;strokeWidth=3;" parent="WXTtPWbgd7FlGvqmc448-1" vertex="1">
          <mxGeometry x="335" y="860" width="157" height="100" as="geometry" />
        </mxCell>
        <mxCell id="wHXIrMfXZqtEA2M9oa7I-8" value="Changement d&#39;icône" style="ellipse;whiteSpace=wrap;html=1;fillColor=#FAE5C7;strokeColor=#67AB9F;fontColor=#143642;strokeWidth=3;" parent="WXTtPWbgd7FlGvqmc448-1" vertex="1">
          <mxGeometry x="490" y="380" width="85" height="60" as="geometry" />
        </mxCell>
        <mxCell id="g7iJF341yFUH4qKAj3CY-0" value="supprimer une&amp;nbsp;&lt;span style=&quot;color: rgba(0 , 0 , 0 , 0) ; font-family: monospace ; font-size: 0px&quot;&gt;%3CmxGraphModel%3E%3Croot%3E%3CmxCell%20id%3D%220%22%2F%3E%3CmxCell%20id%3D%221%22%20parent%3D%220%22%2F%3E%3CmxCell%20id%3D%222%22%20value%3D%22ajouter%20une%20t%C3%A2che%22%20style%3D%22ellipse%3BwhiteSpace%3Dwrap%3Bhtml%3D1%3BfillColor%3D%23FAE5C7%3BstrokeColor%3D%230F8B8D%3BfontColor%3D%23143642%3BstrokeWidth%3D3%3B%22%20vertex%3D%221%22%20parent%3D%221%22%3E%3CmxGeometry%20x%3D%22335%22%20y%3D%22610%22%20width%3D%22157%22%20height%3D%22100%22%20as%3D%22geometry%22%2F%3E%3C%2FmxCell%3E%3C%2Froot%3E%3C%2FmxGraphModel%3E&lt;/span&gt;&lt;br&gt;&amp;nbsp;une tâche" style="ellipse;whiteSpace=wrap;html=1;fillColor=#FAE5C7;strokeColor=#0F8B8D;fontColor=#143642;strokeWidth=3;" parent="WXTtPWbgd7FlGvqmc448-1" vertex="1">
          <mxGeometry x="333" y="650" width="157" height="100" as="geometry" />
        </mxCell>
        <mxCell id="g7iJF341yFUH4qKAj3CY-1" value="valider une tâche" style="ellipse;whiteSpace=wrap;html=1;fillColor=#FAE5C7;strokeColor=#0F8B8D;fontColor=#143642;strokeWidth=3;" parent="WXTtPWbgd7FlGvqmc448-1" vertex="1">
          <mxGeometry x="333" y="270" width="157" height="100" as="geometry" />
        </mxCell>
        <mxCell id="xKzWtt5PrQXULl82wDnu-9" value="return" style="html=1;verticalAlign=bottom;endArrow=open;dashed=1;endSize=8;fontColor=#143642;strokeColor=#A8201A;fillColor=#FAE5C7;exitX=1;exitY=1;exitDx=0;exitDy=0;entryX=0.5;entryY=0;entryDx=0;entryDy=0;" parent="WXTtPWbgd7FlGvqmc448-1" source="g7iJF341yFUH4qKAj3CY-1" target="wHXIrMfXZqtEA2M9oa7I-8" edge="1">
          <mxGeometry relative="1" as="geometry">
            <mxPoint x="740" y="420" as="sourcePoint" />
            <mxPoint x="660" y="420" as="targetPoint" />
          </mxGeometry>
        </mxCell>
        <mxCell id="s_U7M8CdzGXlAqBTSheY-0" value="sélectionne un contact" style="ellipse;whiteSpace=wrap;html=1;fillColor=#FAE5C7;strokeColor=#0F8B8D;fontColor=#143642;strokeWidth=3;" parent="WXTtPWbgd7FlGvqmc448-1" vertex="1">
          <mxGeometry x="333" y="120" width="157" height="100" as="geometry" />
        </mxCell>
      </root>
    </mxGraphModel>
  </diagram>
  <diagram name="Contact" id="jLS3fki2aJljjSCu7amW">
    <mxGraphModel dx="806" dy="490" grid="1" gridSize="10" guides="1" tooltips="1" connect="1" arrows="1" fold="1" page="1" pageScale="1" pageWidth="827" pageHeight="1169" background="#DAD2D8" math="0" shadow="0">
      <root>
        <mxCell id="5vwQFB1EGFWnGSSuwMpy-0" />
        <mxCell id="5vwQFB1EGFWnGSSuwMpy-1" parent="5vwQFB1EGFWnGSSuwMpy-0" />
        <mxCell id="Hb3121Sesb2D6RizW1UG-0" value="" style="rounded=1;whiteSpace=wrap;html=1;absoluteArcSize=1;arcSize=122;strokeWidth=2;fillColor=#FAE5C7;strokeColor=#0F8B8D;fontColor=#143642;" parent="5vwQFB1EGFWnGSSuwMpy-1" vertex="1">
          <mxGeometry x="203" y="30" width="420" height="1120" as="geometry" />
        </mxCell>
        <mxCell id="Hb3121Sesb2D6RizW1UG-25" style="edgeStyle=orthogonalEdgeStyle;rounded=1;orthogonalLoop=1;jettySize=auto;html=1;exitX=1;exitY=0.3333333333333333;exitDx=0;exitDy=0;exitPerimeter=0;entryX=0;entryY=0.5;entryDx=0;entryDy=0;fontColor=#143642;endArrow=classic;endFill=1;strokeColor=#A8201A;fillColor=#FAE5C7;" parent="5vwQFB1EGFWnGSSuwMpy-1" source="Hb3121Sesb2D6RizW1UG-1" target="Hb3121Sesb2D6RizW1UG-24" edge="1">
          <mxGeometry relative="1" as="geometry" />
        </mxCell>
        <mxCell id="Hb3121Sesb2D6RizW1UG-26" style="edgeStyle=orthogonalEdgeStyle;rounded=1;orthogonalLoop=1;jettySize=auto;html=1;exitX=1;exitY=0.3333333333333333;exitDx=0;exitDy=0;exitPerimeter=0;entryX=0;entryY=0.5;entryDx=0;entryDy=0;fontColor=#143642;endArrow=classic;endFill=1;strokeColor=#A8201A;fillColor=#FAE5C7;" parent="5vwQFB1EGFWnGSSuwMpy-1" source="Hb3121Sesb2D6RizW1UG-1" target="Hb3121Sesb2D6RizW1UG-19" edge="1">
          <mxGeometry relative="1" as="geometry" />
        </mxCell>
        <mxCell id="Hb3121Sesb2D6RizW1UG-27" style="edgeStyle=orthogonalEdgeStyle;rounded=1;orthogonalLoop=1;jettySize=auto;html=1;exitX=1;exitY=0.3333333333333333;exitDx=0;exitDy=0;exitPerimeter=0;entryX=0;entryY=0.5;entryDx=0;entryDy=0;fontColor=#143642;endArrow=classic;endFill=1;strokeColor=#A8201A;fillColor=#FAE5C7;" parent="5vwQFB1EGFWnGSSuwMpy-1" source="Hb3121Sesb2D6RizW1UG-1" target="Hb3121Sesb2D6RizW1UG-18" edge="1">
          <mxGeometry relative="1" as="geometry" />
        </mxCell>
        <mxCell id="Hb3121Sesb2D6RizW1UG-28" style="edgeStyle=orthogonalEdgeStyle;rounded=1;orthogonalLoop=1;jettySize=auto;html=1;exitX=1;exitY=0.3333333333333333;exitDx=0;exitDy=0;exitPerimeter=0;entryX=0;entryY=0.5;entryDx=0;entryDy=0;fontColor=#143642;endArrow=classic;endFill=1;strokeColor=#A8201A;fillColor=#FAE5C7;" parent="5vwQFB1EGFWnGSSuwMpy-1" source="Hb3121Sesb2D6RizW1UG-1" target="Hb3121Sesb2D6RizW1UG-17" edge="1">
          <mxGeometry relative="1" as="geometry" />
        </mxCell>
        <mxCell id="Hb3121Sesb2D6RizW1UG-29" style="edgeStyle=orthogonalEdgeStyle;rounded=1;orthogonalLoop=1;jettySize=auto;html=1;exitX=1;exitY=0.3333333333333333;exitDx=0;exitDy=0;exitPerimeter=0;entryX=0;entryY=0.5;entryDx=0;entryDy=0;fontColor=#143642;endArrow=classic;endFill=1;strokeColor=#A8201A;fillColor=#FAE5C7;" parent="5vwQFB1EGFWnGSSuwMpy-1" source="Hb3121Sesb2D6RizW1UG-1" target="Hb3121Sesb2D6RizW1UG-16" edge="1">
          <mxGeometry relative="1" as="geometry" />
        </mxCell>
        <mxCell id="Hb3121Sesb2D6RizW1UG-30" style="edgeStyle=orthogonalEdgeStyle;rounded=1;orthogonalLoop=1;jettySize=auto;html=1;exitX=1;exitY=0.3333333333333333;exitDx=0;exitDy=0;exitPerimeter=0;entryX=0;entryY=0.5;entryDx=0;entryDy=0;fontColor=#143642;endArrow=classic;endFill=1;strokeColor=#A8201A;fillColor=#FAE5C7;" parent="5vwQFB1EGFWnGSSuwMpy-1" source="Hb3121Sesb2D6RizW1UG-1" target="Hb3121Sesb2D6RizW1UG-15" edge="1">
          <mxGeometry relative="1" as="geometry" />
        </mxCell>
        <mxCell id="Hb3121Sesb2D6RizW1UG-1" value="Bénévole" style="shape=umlActor;verticalLabelPosition=bottom;verticalAlign=top;html=1;fillColor=#FAE5C7;strokeColor=#0F8B8D;fontColor=#143642;" parent="5vwQFB1EGFWnGSSuwMpy-1" vertex="1">
          <mxGeometry x="20" y="515" width="100" height="210" as="geometry" />
        </mxCell>
        <mxCell id="Hb3121Sesb2D6RizW1UG-31" style="edgeStyle=orthogonalEdgeStyle;rounded=1;orthogonalLoop=1;jettySize=auto;html=1;exitX=0;exitY=0.3333333333333333;exitDx=0;exitDy=0;exitPerimeter=0;entryX=1;entryY=0.5;entryDx=0;entryDy=0;fontColor=#143642;endArrow=classic;endFill=1;strokeColor=#A8201A;fillColor=#FAE5C7;" parent="5vwQFB1EGFWnGSSuwMpy-1" source="Hb3121Sesb2D6RizW1UG-2" target="Hb3121Sesb2D6RizW1UG-15" edge="1">
          <mxGeometry relative="1" as="geometry" />
        </mxCell>
        <mxCell id="Hb3121Sesb2D6RizW1UG-33" style="edgeStyle=orthogonalEdgeStyle;rounded=1;orthogonalLoop=1;jettySize=auto;html=1;exitX=0;exitY=0.3333333333333333;exitDx=0;exitDy=0;exitPerimeter=0;entryX=1;entryY=0.5;entryDx=0;entryDy=0;fontColor=#143642;endArrow=classic;endFill=1;strokeColor=#A8201A;fillColor=#FAE5C7;" parent="5vwQFB1EGFWnGSSuwMpy-1" source="Hb3121Sesb2D6RizW1UG-2" target="Hb3121Sesb2D6RizW1UG-17" edge="1">
          <mxGeometry relative="1" as="geometry" />
        </mxCell>
        <mxCell id="i8sHhnJRCR9jXlkiBBY4-3" style="edgeStyle=orthogonalEdgeStyle;rounded=1;orthogonalLoop=1;jettySize=auto;html=1;exitX=0;exitY=0.3333333333333333;exitDx=0;exitDy=0;exitPerimeter=0;entryX=1;entryY=0.5;entryDx=0;entryDy=0;fontColor=#143642;endArrow=classic;endFill=1;strokeColor=#A8201A;fillColor=#FAE5C7;" parent="5vwQFB1EGFWnGSSuwMpy-1" source="Hb3121Sesb2D6RizW1UG-2" target="Hb3121Sesb2D6RizW1UG-16" edge="1">
          <mxGeometry relative="1" as="geometry" />
        </mxCell>
        <mxCell id="Hb3121Sesb2D6RizW1UG-2" value="Elève" style="shape=umlActor;verticalLabelPosition=bottom;verticalAlign=top;html=1;fillColor=#FAE5C7;strokeColor=#0F8B8D;fontColor=#143642;" parent="5vwQFB1EGFWnGSSuwMpy-1" vertex="1">
          <mxGeometry x="690" y="515" width="100" height="210" as="geometry" />
        </mxCell>
        <mxCell id="Hb3121Sesb2D6RizW1UG-3" value="Site web Learn@Home&lt;br&gt;Page Contact" style="text;html=1;strokeColor=none;fillColor=none;align=center;verticalAlign=middle;whiteSpace=wrap;rounded=0;fontColor=#143642;" parent="5vwQFB1EGFWnGSSuwMpy-1" vertex="1">
          <mxGeometry x="248" y="40" width="330" height="20" as="geometry" />
        </mxCell>
        <mxCell id="Hb3121Sesb2D6RizW1UG-15" value="sélectionner un contact" style="ellipse;whiteSpace=wrap;html=1;fillColor=#FAE5C7;strokeColor=#0F8B8D;fontColor=#143642;strokeWidth=3;" parent="5vwQFB1EGFWnGSSuwMpy-1" vertex="1">
          <mxGeometry x="334" y="90" width="157" height="100" as="geometry" />
        </mxCell>
        <mxCell id="Hb3121Sesb2D6RizW1UG-16" value="visualisé un contact" style="ellipse;whiteSpace=wrap;html=1;fillColor=#FAE5C7;strokeColor=#0F8B8D;fontColor=#143642;strokeWidth=3;" parent="5vwQFB1EGFWnGSSuwMpy-1" vertex="1">
          <mxGeometry x="332.5" y="280" width="157" height="100" as="geometry" />
        </mxCell>
        <mxCell id="Hb3121Sesb2D6RizW1UG-17" value="chatter avec un contact" style="ellipse;whiteSpace=wrap;html=1;fillColor=#FAE5C7;strokeColor=#0F8B8D;fontColor=#143642;strokeWidth=3;" parent="5vwQFB1EGFWnGSSuwMpy-1" vertex="1">
          <mxGeometry x="332.5" y="470" width="157" height="100" as="geometry" />
        </mxCell>
        <mxCell id="Hb3121Sesb2D6RizW1UG-18" value="écrire une note" style="ellipse;whiteSpace=wrap;html=1;fillColor=#FAE5C7;strokeColor=#0F8B8D;fontColor=#143642;strokeWidth=3;" parent="5vwQFB1EGFWnGSSuwMpy-1" vertex="1">
          <mxGeometry x="334" y="635" width="157" height="100" as="geometry" />
        </mxCell>
        <mxCell id="Hb3121Sesb2D6RizW1UG-19" value="prendre rendez-vous avec un contact" style="ellipse;whiteSpace=wrap;html=1;fillColor=#FAE5C7;strokeColor=#0F8B8D;fontColor=#143642;strokeWidth=3;" parent="5vwQFB1EGFWnGSSuwMpy-1" vertex="1">
          <mxGeometry x="334" y="780" width="157" height="100" as="geometry" />
        </mxCell>
        <mxCell id="Hb3121Sesb2D6RizW1UG-24" value="consulté la liste de tâche d&#39;un contact" style="ellipse;whiteSpace=wrap;html=1;fillColor=#FAE5C7;strokeColor=#0F8B8D;fontColor=#143642;strokeWidth=3;" parent="5vwQFB1EGFWnGSSuwMpy-1" vertex="1">
          <mxGeometry x="332.5" y="950" width="157" height="100" as="geometry" />
        </mxCell>
        <mxCell id="Hb3121Sesb2D6RizW1UG-34" value="Extends" style="endArrow=block;endSize=16;endFill=0;html=1;fontColor=#143642;strokeColor=#A8201A;fillColor=#FAE5C7;exitX=0;exitY=1;exitDx=0;exitDy=0;entryX=0.5;entryY=0;entryDx=0;entryDy=0;" parent="5vwQFB1EGFWnGSSuwMpy-1" source="Hb3121Sesb2D6RizW1UG-15" target="i8sHhnJRCR9jXlkiBBY4-0" edge="1">
          <mxGeometry width="160" relative="1" as="geometry">
            <mxPoint x="310" y="220" as="sourcePoint" />
            <mxPoint x="320" y="230" as="targetPoint" />
          </mxGeometry>
        </mxCell>
        <mxCell id="i8sHhnJRCR9jXlkiBBY4-0" value="liste des contact" style="ellipse;whiteSpace=wrap;html=1;fillColor=#FAE5C7;strokeColor=#67AB9F;fontColor=#143642;strokeWidth=3;" parent="5vwQFB1EGFWnGSSuwMpy-1" vertex="1">
          <mxGeometry x="260" y="220" width="85" height="60" as="geometry" />
        </mxCell>
        <mxCell id="i8sHhnJRCR9jXlkiBBY4-1" value="Extends" style="endArrow=block;endSize=16;endFill=0;html=1;fontColor=#143642;strokeColor=#A8201A;fillColor=#FAE5C7;exitX=0.812;exitY=0.9;exitDx=0;exitDy=0;entryX=0.5;entryY=0;entryDx=0;entryDy=0;exitPerimeter=0;" parent="5vwQFB1EGFWnGSSuwMpy-1" source="Hb3121Sesb2D6RizW1UG-16" target="i8sHhnJRCR9jXlkiBBY4-2" edge="1">
          <mxGeometry width="160" relative="1" as="geometry">
            <mxPoint x="357.1697415397623" y="369.9981143975883" as="sourcePoint" />
            <mxPoint x="320" y="424.53" as="targetPoint" />
          </mxGeometry>
        </mxCell>
        <mxCell id="i8sHhnJRCR9jXlkiBBY4-2" value="fiche du contact" style="ellipse;whiteSpace=wrap;html=1;fillColor=#FAE5C7;strokeColor=#67AB9F;fontColor=#143642;strokeWidth=3;" parent="5vwQFB1EGFWnGSSuwMpy-1" vertex="1">
          <mxGeometry x="470" y="400" width="85" height="60" as="geometry" />
        </mxCell>
        <mxCell id="i8sHhnJRCR9jXlkiBBY4-4" value="Extends" style="endArrow=block;endSize=16;endFill=0;html=1;fontColor=#143642;strokeColor=#A8201A;fillColor=#FAE5C7;entryX=0.5;entryY=0;entryDx=0;entryDy=0;exitX=0;exitY=1;exitDx=0;exitDy=0;" parent="5vwQFB1EGFWnGSSuwMpy-1" source="Hb3121Sesb2D6RizW1UG-17" target="i8sHhnJRCR9jXlkiBBY4-5" edge="1">
          <mxGeometry width="160" relative="1" as="geometry">
            <mxPoint x="595.441" y="550" as="sourcePoint" />
            <mxPoint x="549.5" y="604.53" as="targetPoint" />
          </mxGeometry>
        </mxCell>
        <mxCell id="i8sHhnJRCR9jXlkiBBY4-5" value="Page de chat du contact" style="ellipse;whiteSpace=wrap;html=1;fillColor=#FAE5C7;strokeColor=#67AB9F;fontColor=#143642;strokeWidth=3;" parent="5vwQFB1EGFWnGSSuwMpy-1" vertex="1">
          <mxGeometry x="260" y="590" width="85" height="60" as="geometry" />
        </mxCell>
        <mxCell id="i8sHhnJRCR9jXlkiBBY4-6" value="Extends" style="endArrow=block;endSize=16;endFill=0;html=1;fontColor=#143642;strokeColor=#A8201A;fillColor=#FAE5C7;entryX=0.5;entryY=0;entryDx=0;entryDy=0;exitX=1;exitY=1;exitDx=0;exitDy=0;" parent="5vwQFB1EGFWnGSSuwMpy-1" source="Hb3121Sesb2D6RizW1UG-18" target="i8sHhnJRCR9jXlkiBBY4-7" edge="1">
          <mxGeometry width="160" relative="1" as="geometry">
            <mxPoint x="243.9932129316362" y="710.0003077402746" as="sourcePoint" />
            <mxPoint x="315.51" y="736.48" as="targetPoint" />
          </mxGeometry>
        </mxCell>
        <mxCell id="i8sHhnJRCR9jXlkiBBY4-7" value="Page de chat du contact" style="ellipse;whiteSpace=wrap;html=1;fillColor=#FAE5C7;strokeColor=#67AB9F;fontColor=#143642;strokeWidth=3;" parent="5vwQFB1EGFWnGSSuwMpy-1" vertex="1">
          <mxGeometry x="493" y="735" width="85" height="60" as="geometry" />
        </mxCell>
        <mxCell id="i8sHhnJRCR9jXlkiBBY4-8" value="Extends" style="endArrow=block;endSize=16;endFill=0;html=1;fontColor=#143642;strokeColor=#A8201A;fillColor=#FAE5C7;entryX=0.5;entryY=0;entryDx=0;entryDy=0;exitX=0.076;exitY=0.78;exitDx=0;exitDy=0;exitPerimeter=0;" parent="5vwQFB1EGFWnGSSuwMpy-1" source="Hb3121Sesb2D6RizW1UG-19" target="i8sHhnJRCR9jXlkiBBY4-9" edge="1">
          <mxGeometry width="160" relative="1" as="geometry">
            <mxPoint x="240.00025846023792" y="859.9981143975883" as="sourcePoint" />
            <mxPoint x="87.67999999999998" y="876.01" as="targetPoint" />
          </mxGeometry>
        </mxCell>
        <mxCell id="i8sHhnJRCR9jXlkiBBY4-9" value="boîte du dialogue prise de rdv" style="ellipse;whiteSpace=wrap;html=1;fillColor=#FAE5C7;strokeColor=#67AB9F;fontColor=#143642;strokeWidth=3;" parent="5vwQFB1EGFWnGSSuwMpy-1" vertex="1">
          <mxGeometry x="269.99999999999994" y="890" width="85" height="60" as="geometry" />
        </mxCell>
        <mxCell id="i8sHhnJRCR9jXlkiBBY4-10" value="Extends" style="endArrow=block;endSize=16;endFill=0;html=1;fontColor=#143642;strokeColor=#A8201A;fillColor=#FAE5C7;entryX=0.5;entryY=0;entryDx=0;entryDy=0;exitX=0.946;exitY=0.79;exitDx=0;exitDy=0;exitPerimeter=0;" parent="5vwQFB1EGFWnGSSuwMpy-1" source="Hb3121Sesb2D6RizW1UG-24" target="i8sHhnJRCR9jXlkiBBY4-11" edge="1">
          <mxGeometry width="160" relative="1" as="geometry">
            <mxPoint x="565.432" y="1040" as="sourcePoint" />
            <mxPoint x="307.17999999999995" y="1058.01" as="targetPoint" />
          </mxGeometry>
        </mxCell>
        <mxCell id="i8sHhnJRCR9jXlkiBBY4-11" value="Page de to do liste du contact" style="ellipse;whiteSpace=wrap;html=1;fillColor=#FAE5C7;strokeColor=#67AB9F;fontColor=#143642;strokeWidth=3;" parent="5vwQFB1EGFWnGSSuwMpy-1" vertex="1">
          <mxGeometry x="489.49999999999994" y="1062" width="85" height="60" as="geometry" />
        </mxCell>
      </root>
    </mxGraphModel>
  </diagram>
</mxfile>
